{"asset":{"version":"2.0","generator":"THREE.GLTFExporter r172"},"scenes":[{"nodes":[0]}],"scene":0,"nodes":[{"mesh":0}],"bufferViews":[{"buffer":0,"byteOffset":0,"byteLength":15912,"target":34962,"byteStride":12},{"buffer":0,"byteOffset":15912,"byteLength":2652,"target":34963}],"buffers":[{"byteLength":18564,"uri":"data:application/octet-stream;base64,"}],"accessors":[{"bufferView":0,"componentType":5126,"count":1326,"max":[47.18070983886719,246.5368194580078,350.1867980957031],"min":[-195.8192901611328,216.5368194580078,111.68679809570312],"type":"VEC3"},{"bufferView":1,"componentType":5123,"count":1326,"max":[1325],"min":[0],"type":"SCALAR"}],"materials":[{"pbrMetallicRoughness":{"metallicFactor":0,"roughnessFactor":1}}],"meshes":[{"primitives":[{"mode":4,"attributes":{"POSITION":0},"indices":1,"material":0}]}]}